<svg width="25" height="25" viewBox="0 0 25 25" fill="none" xmlns="http://www.w3.org/2000/svg">
<path d="M3.18848 6.25195H5.18848H21.1885" stroke="currentColor" stroke-width="2" stroke-linecap="round" stroke-linejoin="round"/>
<path d="M19.1885 6.25195V20.252C19.1885 20.7824 18.9778 21.2911 18.6027 21.6662C18.2276 22.0412 17.7189 22.252 17.1885 22.252H7.18848C6.65804 22.252 6.14934 22.0412 5.77426 21.6662C5.39919 21.2911 5.18848 20.7824 5.18848 20.252V6.25195M8.18848 6.25195V4.25195C8.18848 3.72152 8.39919 3.21281 8.77426 2.83774C9.14934 2.46267 9.65804 2.25195 10.1885 2.25195H14.1885C14.7189 2.25195 15.2276 2.46267 15.6027 2.83774C15.9778 3.21281 16.1885 3.72152 16.1885 4.25195V6.25195" stroke="currentColor" stroke-width="2" stroke-linecap="round" stroke-linejoin="round"/>
<path d="M10.1885 11.252V17.252" stroke="currentColor" stroke-width="2" stroke-linecap="round" stroke-linejoin="round"/>
<path d="M14.1885 11.252V17.252" stroke="currentColor" stroke-width="2" stroke-linecap="round" stroke-linejoin="round"/>
</svg>
