<svg width="25" height="25" viewBox="0 0 25 25" fill="none" xmlns="http://www.w3.org/2000/svg">
<path d="M21.3867 12.3579C21.3902 13.6778 21.0818 14.9798 20.4867 16.1579C19.7812 17.5697 18.6965 18.7571 17.3542 19.5872C16.0119 20.4173 14.465 20.8573 12.8867 20.8579C11.5669 20.8614 10.2648 20.553 9.08672 19.9579L3.38672 21.8579L5.28672 16.1579C4.69165 14.9798 4.38328 13.6778 4.38672 12.3579C4.38733 10.7797 4.82733 9.23279 5.65744 7.89049C6.48755 6.54819 7.67497 5.46351 9.08672 4.75794C10.2648 4.16287 11.5669 3.8545 12.8867 3.85794H13.3867C15.4711 3.97293 17.4398 4.8527 18.9159 6.3288C20.392 7.8049 21.2717 9.77359 21.3867 11.8579V12.3579Z" stroke-width="2" stroke-linecap="round" stroke-linejoin="round"/>
</svg>
